<svg xmlns="http://www.w3.org/2000/svg" xmlns:xlink="http://www.w3.org/1999/xlink" width="228.516" height="200" class="icon" p-id="9467" t="1705611333644" version="1.1" viewBox="0 0 1170 1024"><path fill="#000" d="M657.774 26.843h440.1c39.57 0 71.095 32.183 72.412 71.754v830.098a73.29 73.29 0 0 1-72.412 71.68H734.647l93.915-368.055-97.792-70.949 40.814-34.523c10.46-8.411 19.602-14.482 32.475-14.482a43.52 43.52 0 0 1 32.476 15.725h-0.073l251.319 270.556-0.732-660.26a32.183 32.183 0 0 0-32.768-30.428H640.073l17.7-81.116z m-149.724 0l-17.7 81.189H147.163c-17.188 0-30.72 12.434-33.133 29.623v660.48l306.249-369.372-16.53 75.996 258.56 187.611-78.629 308.078H103.863a71.241 71.241 0 0 1-70.949-71.753V98.597c0-39.498 31.452-71.68 70.949-71.68H508.05z m257.39 283.941a121.783 121.783 0 1 1 243.493 0 121.783 121.783 0 0 1-243.566 0z" p-id="9468"/></svg>